<?xml version="1.0" standalone="no"?><!DOCTYPE svg PUBLIC "-//W3C//DTD SVG 1.1//EN" "http://www.w3.org/Graphics/SVG/1.1/DTD/svg11.dtd"><svg width="100%" height="100%" viewBox="0 0 300 200" version="1.1" xmlns="http://www.w3.org/2000/svg" xmlns:xlink="http://www.w3.org/1999/xlink" xml:space="preserve" style="fill-rule:evenodd;clip-rule:evenodd;stroke-linecap:round;stroke-linejoin:round;stroke-miterlimit:1.41421;"><g id="Layer1"><path d="M171.297,48.5363l-162.866,0l0,152.294" style="fill:none;stroke-width:3px;stroke:#ffa898;"/><path d="M171.297,200.831l0,-152.294" style="fill:none;stroke-width:3px;stroke:#ffa898;"/><rect x="29.0232" y="68.6847" width="120.977" height="72.6187" style="fill:none;stroke-width:1px;stroke:#ffa899;"/><rect x="29.0232" y="179.678" width="43.3069" height="24.2025" style="fill:none;stroke-width:1px;stroke:#ffa899;"/><rect x="106.693" y="179.77" width="43.3069" height="24.2025" style="fill:none;stroke-width:1px;stroke:#ffa899;"/><path d="M29.0232,68.6847l120.977,72.6187" style="fill:none;stroke-width:1px;stroke:#ffa899;"/><path d="M29.0232,179.678l43.3069,24.2025" style="fill:none;stroke-width:1px;stroke:#ffa899;"/><path d="M106.693,179.77l43.3069,24.2025" style="fill:none;stroke-width:1px;stroke:#ffa899;"/><path d="M29.0232,141.303l120.977,-72.6187" style="fill:none;stroke-width:1px;stroke:#ffa899;"/><path d="M29.0232,203.88l43.3069,-24.2025" style="fill:none;stroke-width:1px;stroke:#ffa899;"/><path d="M106.693,203.973l43.3069,-24.2025" style="fill:none;stroke-width:1px;stroke:#ffa899;"/><rect x="47.6667" y="148.287" width="84.9166" height="4.01758" style="fill:#ffa392;"/><rect x="53.381" y="156.481" width="73.488" height="4.01758" style="fill:#ffa392;"/><rect x="51.0648" y="164.581" width="78.1203" height="4.01758" style="fill:#ff9e8d;"/><path d="M111.587,125.241l167.674,-0.135825c9.82669,0 17.7928,-9.03817 17.7928,-20.1873l0,-76.3896c0,-11.1492 -7.96611,-20.1873 -17.7928,-20.1873l-134.869,0c-9.82669,0 -17.7928,9.03817 -17.7928,20.1873l0,76.3896c-1.42109e-14,14.6148 -15.0123,20.3232 -15.0123,20.3232l0.0001,-7.5e-05Z" style="fill:#fff;stroke-width:3px;stroke:#ff6347;"/><rect x="145.092" y="27.4984" width="131.823" height="8.81653" style="fill:#ff6347;"/><rect x="145.092" y="79.4375" width="100.964" height="8.81653" style="fill:#ff6347;"/><rect x="145.092" y="44.6502" width="123.911" height="8.81653" style="fill:#ff6347;"/><rect x="145.092" y="96.5892" width="116.236" height="8.81653" style="fill:#ff6347;"/><rect x="145.092" y="61.8585" width="131.823" height="8.81653" style="fill:#ff6347;"/></g></svg>