<?xml version="1.0" standalone="no"?><!DOCTYPE svg PUBLIC "-//W3C//DTD SVG 1.1//EN" "http://www.w3.org/Graphics/SVG/1.1/DTD/svg11.dtd"><svg width="100%" height="100%" viewBox="0 0 150 100" version="1.1" xmlns="http://www.w3.org/2000/svg" xmlns:xlink="http://www.w3.org/1999/xlink" xml:space="preserve" style="fill-rule:evenodd;clip-rule:evenodd;stroke-linejoin:round;stroke-miterlimit:1.41421;"><g id="Layer1"><path d="M133.063,71.4225c5.22437,0 9.45956,4.23519 9.45956,9.45956c-5.68434e-14,2.596 -1.04572,4.94776 -2.7389,6.65703c-0.150246,0.151673 -1.19758,-1.21845 -1.19758,-1.21845l-5.18596,-5.27473c0,0 0.627139,9.29571 -0.337124,9.29571c-5.22437,0 -9.45956,-4.23519 -9.45956,-9.45956c0,-5.22437 4.23519,-9.45956 9.45956,-9.45956Z" style="fill:#ffb3a6;"/><g><g><rect x="9.70532" y="5.68583" width="1.02338" height="1.02259" style="fill:#ff6347;"/><rect x="10.7287" y="6.71" width="1.02417" height="1.02259" style="fill:#ff6347;"/><rect x="8.68114" y="4.66086" width="1.02417" height="1.02417" style="fill:#ff6347;"/><rect x="7.65697" y="3.63669" width="1.02259" height="1.02259" style="fill:#ff6347;"/><rect x="6.63439" y="2.6141" width="1.02259" height="1.02259" style="fill:#ff6347;"/><rect x="14.8246" y="10.8027" width="1.02417" height="1.02655" style="fill:#ff6347;"/><path d="M13.7988,9.77855l0,1.02417l1.02575,0l0,-1.02417l-1.02417,0l0,-1.02259l-1.02259,0l0,1.02259l1.02101,0Z" style="fill:#ff6347;fill-rule:nonzero;"/><rect x="11.7529" y="7.73258" width="1.02338" height="1.02417" style="fill:#ff6347;"/><rect x="10.7287" y="16.9462" width="1.02417" height="2.04676" style="fill:#ff6347;"/><path d="M5.61021,2.6141l1.02417,0l0,-1.02417l-1.02417,0l0,-1.02496l-1.02496,0l0,17.407l2.04913,0l0,-1.02575l-1.02417,0l0,-14.3321Z" style="fill:#ff6347;fill-rule:nonzero;"/><rect x="9.70532" y="14.8994" width="1.02338" height="2.04676" style="fill:#ff6347;"/><path d="M16.8713,13.8768l0,-2.04755l-1.02259,0l0,1.02259l-4.09589,0l0,2.04755l1.02496,0l0,-1.02259l4.09352,0Z" style="fill:#ff6347;fill-rule:nonzero;"/><path d="M13.7988,16.9462l0,2.04913l-2.04597,0l0,1.02338l2.04755,0l0,-1.02338l1.02417,0l0,-2.04913l-1.02417,0l0,-2.04676l-1.02259,0l0,2.04676l1.02101,0Z" style="fill:#ff6347;fill-rule:nonzero;"/><rect x="6.63439" y="15.922" width="1.02259" height="1.02259" style="fill:#ff6347;"/><rect x="8.68114" y="13.8768" width="1.02417" height="1.02259" style="fill:#ff6347;"/><rect x="7.65697" y="14.8994" width="1.02259" height="1.02259" style="fill:#ff6347;"/></g></g><g><rect x="138.25" y="86.0024" width="1.0218" height="1.0218" style="fill:#ff6347;"/><rect x="139.274" y="87.0242" width="1.02338" height="1.02417" style="fill:#ff6347;"/><rect x="137.222" y="84.9774" width="1.02496" height="1.02496" style="fill:#ff6347;"/><rect x="136.2" y="83.9525" width="1.0218" height="1.02496" style="fill:#ff6347;"/><rect x="135.176" y="82.9307" width="1.02417" height="1.02021" style="fill:#ff6347;"/><rect x="143.368" y="91.1201" width="1.02496" height="1.02496" style="fill:#ff6347;"/><path d="M142.344,90.0951l0,1.02496l1.02417,0l0,-1.02496l-1.02417,0l0,-1.0218l-1.02496,0l0,1.0218l1.02496,0Z" style="fill:#ff6347;fill-rule:nonzero;"/><rect x="140.297" y="88.0484" width="1.0218" height="1.02496" style="fill:#ff6347;"/><rect x="139.274" y="97.2627" width="1.02338" height="2.04676" style="fill:#ff6347;"/><path d="M134.155,82.9307l1.02101,0l0,-1.02496l-1.02101,0l0,-1.02496l-1.02575,0l0,17.407l2.04676,0l0,-1.02496l-1.02101,0l0,-14.3321Z" style="fill:#ff6347;fill-rule:nonzero;"/><rect x="138.25" y="95.2168" width="1.0218" height="2.04597" style="fill:#ff6347;"/><path d="M145.415,94.1918l0,-2.04676l-1.02338,0l0,1.0218l-4.09431,0l0,2.04993l1.0218,0l0,-1.02496l4.09589,0Z" style="fill:#ff6347;fill-rule:nonzero;"/><path d="M142.344,97.2627l0,2.04676l-2.04676,0l0,1.02496l2.04676,0l0,-1.02496l1.02417,0l0,-2.04676l-1.02417,0l0,-2.04597l-1.02496,0l0,2.04597l1.02496,0Z" style="fill:#ff6347;fill-rule:nonzero;"/><rect x="135.176" y="96.2386" width="1.02417" height="1.02417" style="fill:#ff6347;"/><rect x="137.222" y="94.1918" width="1.02496" height="1.02496" style="fill:#ff6347;"/><rect x="136.2" y="95.2168" width="1.0218" height="1.02021" style="fill:#ff6347;"/></g><path d="M4.98387,21.7509l0,59.2545l128.146,-0.124676l0.0570866,-79.9111l-120.922,0" style="fill:none;stroke-width:0.75px;stroke:#ff6347;"/></g></svg>