<?xml version="1.0" standalone="no"?><!DOCTYPE svg PUBLIC "-//W3C//DTD SVG 1.1//EN" "http://www.w3.org/Graphics/SVG/1.1/DTD/svg11.dtd"><svg width="100%" height="100%" viewBox="0 0 300 200" version="1.1" xmlns="http://www.w3.org/2000/svg" xmlns:xlink="http://www.w3.org/1999/xlink" xml:space="preserve" style="fill-rule:evenodd;clip-rule:evenodd;stroke-linejoin:round;stroke-miterlimit:1.41421;"><g id="Layer_3"></g><g id="Layer_2"><g><path d="M15.3291,145.261l30.3811,0l0.0926801,-0.000587194l0.088322,-0.00167617l0.0880185,-0.00279021l0.0877699,-0.0038908l0.0874024,-0.00497818l0.0869728,-0.00606002l0.0867131,-0.00715255l0.0864418,-0.00822305l0.0860053,-0.00927714l0.0857271,-0.0103482l0.0853313,-0.0113826l0.0849345,-0.0124317l0.0847068,-0.0134838l0.084243,-0.0144911l0.083825,-0.0155144l0.0835784,-0.0165547l0.0831577,-0.0175484l0.0826856,-0.0185369l0.0824084,-0.0195641l0.0819736,-0.0205336l0.0815381,-0.021518l0.0811961,-0.0225064l0.0807481,-0.0234678l0.080343,-0.0244347l0.0798741,-0.0253776l0.0794727,-0.0263429l0.0791029,-0.0273059l0.0786083,-0.0282223l0.0781355,-0.0291482l0.0777567,-0.0301023l0.0772452,-0.0309945l0.0767472,-0.0319018l0.0763455,-0.032836l0.0758756,-0.0337378l0.0753607,-0.0346152l0.0748323,-0.0354872l0.0743873,-0.0363969l0.0739137,-0.0372807l0.073367,-0.0381295l0.0727969,-0.0389634l0.0723021,-0.0398414l0.0718394,-0.0407236l0.0712936,-0.0415586l0.0707216,-0.0423747l0.0701474,-0.0431912l0.0695954,-0.0440183l0.0690482,-0.0448463l0.068483,-0.0456579l0.0678652,-0.0464341l0.0673118,-0.0472571l0.066765,-0.0480735l0.0661131,-0.048815l0.0654971,-0.0495878l0.0649418,-0.0503998l0.0642712,-0.0511163l0.0636226,-0.0518628l0.0630406,-0.0526522l0.0623995,-0.0533921l0.0616832,-0.0540653l0.0610746,-0.054847l0.0604424,-0.0555822l0.0597302,-0.0562622l0.0590484,-0.0569615l0.0583509,-0.0576529l0.0577301,-0.0584175l0.0569764,-0.0590326l0.0562381,-0.0596928l0.0556111,-0.0604495l0.0548376,-0.0610483l0.0541104,-0.0617134l0.0533747,-0.0623543l0.0526599,-0.0630368l0.0519152,-0.0636613l0.0511172,-0.0642454l0.0503675,-0.0648787l0.0496026,-0.0655027l0.0488517,-0.0661382l0.0480431,-0.0667005l0.0472691,-0.067318l0.0464738,-0.0678987l0.045656,-0.0684572l0.0448453,-0.0690252l0.0440472,-0.0696228l0.0432161,-0.0701577l0.0423827,-0.0707094l0.0415448,-0.0712427l0.040699,-0.0717826l0.0398579,-0.0723212l0.0390248,-0.0728903l0.0381389,-0.073344l0.0372514,-0.0738367l0.0364104,-0.0743992l0.0355123,-0.0748615l0.0346259,-0.0753547l0.0337243,-0.0758242l0.0328441,-0.0763503l0.0319244,-0.0767794l0.0309984,-0.0772262l0.030107,-0.0777527l0.0291701,-0.0781673l0.0282225,-0.0785808l0.027298,-0.0790652l0.0263569,-0.0794994l0.0253885,-0.0798842l0.0244404,-0.0803404l0.0234816,-0.0807731l0.0225038,-0.0811529l0.0215257,-0.0815712l0.020548,-0.0819776l0.019552,-0.0823647l0.0185649,-0.0827839l0.0175489,-0.0831094l0.0165413,-0.0835181l0.0155343,-0.0839271l0.0145049,-0.084264l0.0134742,-0.0846305l0.0124398,-0.0850011l0.0113947,-0.0853473l0.0103412,-0.0856813l0.00928459,-0.0860579l0.00822236,-0.0864058l0.00715123,-0.0867591l0.00607196,-0.0870494l0.00498082,-0.0873968l0.00389233,-0.0877292l0.00278568,-0.0880197l0.00167684,-0.0883724l0.00058722,-0.0927003l0,-76.846l-0.000587197,-0.0926806l-0.00167671,-0.0883542l-0.00278548,-0.0879903l-0.00389212,-0.087713l-0.0049805,-0.0873719l-0.00607173,-0.0870345l-0.00715082,-0.0867388l-0.00822189,-0.0863893l-0.00928405,-0.0860376l-0.0103411,-0.0856685l-0.0113947,-0.0853357l-0.0124405,-0.0849988l-0.0134731,-0.0846198l-0.0145027,-0.0842395l-0.0155355,-0.0839223l-0.0165442,-0.0835288l-0.0175475,-0.0831026l-0.0185617,-0.0827619l-0.0195529,-0.0823611l-0.020551,-0.0819859l-0.0215255,-0.0815705l-0.0225015,-0.0811407l-0.0234836,-0.080776l-0.0244453,-0.0803565l-0.0253859,-0.07988l-0.0263569,-0.0794956l-0.0273012,-0.0790783l-0.0282193,-0.0785719l-0.0291701,-0.0781673l-0.0301109,-0.0777629l-0.031007,-0.0772514l-0.0319207,-0.0767782l-0.0328446,-0.0763515l-0.0337248,-0.075833l-0.0346265,-0.0753559l-0.0355239,-0.0748936l-0.0363999,-0.0743855l-0.0372642,-0.0738621l-0.0381465,-0.0733739l-0.039013,-0.072872l-0.0398588,-0.0723306l-0.0407073,-0.071801l-0.0415461,-0.0712564l-0.042392,-0.0707286l-0.0432177,-0.0701757l-0.0440402,-0.0696157l-0.0448644,-0.0690661l-0.0456673,-0.0684856l-0.0464569,-0.0678895l-0.0472708,-0.0673242l-0.048055,-0.0667324l-0.0488431,-0.0661342l-0.0496262,-0.0655454l-0.0503699,-0.0648972l-0.0511197,-0.06426l-0.0519057,-0.0636649l-0.052662,-0.063047l-0.0533895,-0.0623869l-0.0541129,-0.0617277l-0.0548535,-0.0610813l-0.0555864,-0.060438l-0.0562684,-0.0597327l-0.0569937,-0.0590736l-0.0576888,-0.0583872l-0.0583682,-0.0576815l-0.0590509,-0.0569792l-0.0597644,-0.0563059l-0.0604294,-0.0555932l-0.0610608,-0.0548423l-0.0617195,-0.0541163l-0.0623681,-0.0533806l-0.063043,-0.0526657l-0.0636609,-0.0519094l-0.064256,-0.0511233l-0.0649259,-0.050399l-0.0655374,-0.0496336l-0.0660968,-0.0488222l-0.0667283,-0.0480587l-0.0673337,-0.047284l-0.0678877,-0.0464648l-0.0684855,-0.0456749l-0.0690507,-0.0448632l-0.0695978,-0.0440352l-0.0701714,-0.0432213l-0.0707244,-0.0423955l-0.071252,-0.0415496l-0.071819,-0.0407235l-0.0723265,-0.0398664l-0.0728219,-0.038992l-0.0733692,-0.038146l-0.0738924,-0.0372852l-0.0743891,-0.0364093l-0.0748581,-0.0355147l-0.0753627,-0.0346314l-0.075853,-0.0337431l-0.0762977,-0.0328269l-0.0767983,-0.0319307l-0.0772468,-0.0310143l-0.0777327,-0.0301007l-0.0781624,-0.0291736l-0.0785839,-0.028225l-0.079078,-0.0273088l-0.0794735,-0.0263509l-0.0799014,-0.0253978l-0.0803439,-0.0244465l-0.080749,-0.0234795l-0.0811434,-0.0225033l-0.0815655,-0.0215291l-0.0819744,-0.0205491l-0.0823817,-0.0195616l-0.0827406,-0.0185608l-0.0831035,-0.0175485l-0.0835237,-0.0165477l-0.0839077,-0.0155335l-0.0842434,-0.0145065l-0.084624,-0.0134744l-0.0849899,-0.0124436l-0.0853039,-0.0113905l-0.0856993,-0.0103448l-0.0860331,-0.00928782l-0.0863863,-0.0082216l-0.086713,-0.00715254l-0.0870282,-0.00606772l-0.0873747,-0.00498428l-0.0877144,-0.00388834l-0.0880185,-0.00279021l-0.088322,-0.00167617l-0.0926801,-0.000587194l-30.3811,0l-0.0926687,0.000587179l-0.0883104,0.00167612l-0.0880078,0.00279012l-0.087702,0.00388817l-0.0873637,0.0049842l-0.0870214,0.00606758l-0.0867013,0.00715228l-0.0863801,0.00822156l-0.0860244,0.0092875l-0.0856912,0.0103446l-0.085301,0.0113907l-0.0849867,0.0124436l-0.0846142,0.0134735l-0.0842374,0.0145066l-0.0839082,0.015534l-0.0835203,0.0165478l-0.0831017,0.0175483l-0.0827311,0.0185595l-0.0823815,0.0195625l-0.0819779,0.0205502l-0.0815623,0.0215285l-0.081141,0.0225031l-0.0807475,0.0234794l-0.0803457,0.0244476l-0.0799087,0.0253998l-0.0794681,0.0263487l-0.0790736,0.027308l-0.0785979,0.02823l-0.0781668,0.0291738l-0.0777232,0.030097l-0.0772546,0.0310174l-0.076807,0.0319331l-0.0762976,0.0328261l-0.0758584,0.0337446l-0.0753635,0.0346304l-0.0748655,0.0355178l-0.0744037,0.0364141l-0.0738854,0.0372798l-0.0733708,0.0381464l-0.0728452,0.0390025l-0.0723284,0.0398637l-0.0718125,0.0407187l-0.0712665,0.0415558l-0.0707336,0.0423982l-0.0701775,0.0432221l-0.0696039,0.044036l-0.0690534,0.0448618l-0.0684974,0.0456803l-0.0679028,0.0464705l-0.0673305,0.0472776l-0.0667333,0.0480595l-0.0661181,0.0488336l-0.065543,0.0496321l-0.0649212,0.0503916l-0.0642728,0.0511329l-0.0636736,0.0519135l-0.0630428,0.0526607l-0.0623825,0.053388l-0.0617398,0.0541273l-0.0610711,0.0548438l-0.06042,0.0555775l-0.0597693,0.056307l-0.0590709,0.0569911l-0.0583819,0.0576884l-0.0576937,0.058383l-0.0570021,0.0590768l-0.0562905,0.0597459l-0.055583,0.0604255l-0.0548553,0.0610764l-0.0541244,0.0617331l-0.053407,0.0623989l-0.0526613,0.0630353l-0.0519055,0.0636594l-0.0511427,0.0642794l-0.05039,0.0649125l-0.0496272,0.0655328l-0.0488423,0.066126l-0.0480663,0.0667361l-0.0472721,0.067318l-0.0464805,0.0679133l-0.0456749,0.0684819l-0.0448596,0.0690492l-0.0440543,0.0696273l-0.0432283,0.0701795l-0.0423966,0.0707244l-0.0415539,0.0712575l-0.0407214,0.0718133l-0.0398717,0.0723374l-0.0390049,0.0728416l-0.0381507,0.0733747l-0.0372802,0.0738776l-0.0364081,0.0743894l-0.0355273,0.0748826l-0.0346326,0.0753597l-0.0337398,0.0758462l-0.0328419,0.0763308l-0.0319333,0.0767945l-0.0310159,0.0772523l-0.0301022,0.0777255l-0.0291744,0.0781709l-0.0282408,0.0786143l-0.0273005,0.0790498l-0.0263557,0.0794862l-0.0254031,0.0799101l-0.0244477,0.0803438l-0.0234817,0.0807498l-0.0225076,0.0811544l-0.0215333,0.0815709l-0.0205501,0.0819727l-0.0195595,0.0823648l-0.0185616,0.0827485l-0.0175571,0.0831301l-0.0165482,0.0835154l-0.0155323,0.0838949l-0.0145079,0.0842534l-0.013477,0.0846199l-0.0124414,0.084985l-0.0113966,0.0853357l-0.0103456,0.0856825l-0.00928752,0.0860342l-0.00822297,0.0863754l-0.00715046,0.086711l-0.00607125,0.0870483l-0.00498435,0.087372l-0.00389006,0.087699l-0.00278816,0.0880145l-0.00167831,0.0883369l-0.000586607,0.0926668l0,76.846l0.000586617,0.0926764l0.00167835,0.0883429l0.00278831,0.0880267l0.00389015,0.0877125l0.00498451,0.0873787l0.00607129,0.0870603l0.00715063,0.0867132l0.00822317,0.086389l0.00928703,0.0860296l0.0103462,0.0856907l0.0113973,0.085345l0.0124404,0.0849859l0.0134763,0.084612l0.0145097,0.0842674l0.0155306,0.0838893l0.0165493,0.0835174l0.0175585,0.0831446l0.018559,0.082737l0.0195579,0.082358l0.0205499,0.0819682l0.0215331,0.0815702l0.0225096,0.0811576l0.0234794,0.0807456l0.0244424,0.0803187l0.0254053,0.0799129l0.0263612,0.0794991l0.0272973,0.0790443l0.0282371,0.0785965l0.0291739,0.0781696l0.0300978,0.0777065l0.0310152,0.0772465l0.0319281,0.0767744l0.0328503,0.0763425l0.0337392,0.0758449l0.0346215,0.0753281l0.0355262,0.0748726l0.036407,0.0743794l0.037279,0.0738676l0.0381559,0.0733771l0.039004,0.0728361l0.0398568,0.0723027l0.0407272,0.071812l0.0415527,0.0712515l0.0423874,0.0706975l0.0432267,0.0701692l0.0440441,0.0695997l0.0448755,0.0690621l0.0456643,0.0684622l0.0464788,0.0678956l0.0472704,0.0673117l0.0480543,0.0667042l0.0488509,0.0661299l0.0496255,0.065519l0.0503882,0.0649026l0.0511177,0.0642364l0.051915,0.0636557l0.0526839,0.0630546l0.0533675,0.0623451l0.0541219,0.0617111l0.0548662,0.0610809l0.0555809,0.0604078l0.0562884,0.059736l0.0569855,0.0590443l0.0577061,0.058384l0.0583949,0.0576898l0.0590691,0.0569817l0.0597358,0.0562639l0.0604013,0.0555449l0.0610849,0.0548408l0.0617712,0.0541433l0.0623808,0.0533788l0.0630059,0.0526184l0.0636712,0.0518962l0.0642887,0.0511341l0.0649378,0.050393l0.0655034,0.0495944l0.066135,0.048827l0.0667314,0.0480543l0.0673085,0.0472431l0.0679208,0.0464752l0.0684543,0.0456362l0.0690927,0.044872l0.0696445,0.044054l0.0701547,0.0432004l0.0706885,0.0423597l0.0712644,0.0415393l0.0718329,0.0407188l0.0723493,0.0398637l0.0728208,0.0389818l0.0733692,0.0381302l0.0739073,0.0372832l0.0743548,0.0363787l0.0748877,0.035513l0.075362,0.0346221l0.0758814,0.0337395l0.076346,0.0328431l0.0767563,0.0319044l0.0772535,0.0310055l0.0776968,0.0300791l0.0781912,0.0291676l0.0786228,0.0282352l0.0790468,0.0272872l0.0794672,0.0263408l0.0799341,0.0253964l0.0803451,0.0244436l0.0807468,0.0234677l0.0811405,0.0224992l0.0815348,0.0215097l0.0820314,0.020556l0.0823541,0.0195522l0.0827306,0.0185479l0.0831561,0.0175559l0.0835201,0.016544l0.0838806,0.015525l0.0842371,0.0144989l0.0846417,0.013474l0.0849867,0.0124397l0.0852732,0.0113832l0.0857188,0.0103403l0.0860523,0.00929051l0.0863246,0.00821244l0.0867567,0.00714917l0.0870216,0.00607143l0.0873358,0.00497493l0.0877575,0.00389063l0.0880078,0.00279012l0.0883104,0.00167612l0.0926687,0.000587179ZM15.3211,147.796l-0.116724,-0.000739602l-0.120446,-0.00228605l-0.120097,-0.00380743l-0.119681,-0.00530595l-0.119419,-0.00680251l-0.119036,-0.00830505l-0.118583,-0.00977182l-0.118286,-0.0112531l-0.117813,-0.0127195l-0.117381,-0.0141597l-0.117049,-0.015625l-0.116541,-0.0170584l-0.116075,-0.0184778l-0.115655,-0.0199065l-0.115168,-0.0213159l-0.11467,-0.0227142l-0.114159,-0.0241013l-0.113697,-0.0254903l-0.113164,-0.026867l-0.112567,-0.0282077l-0.112127,-0.0295804l-0.111565,-0.0309356l-0.110989,-0.0322571l-0.110407,-0.0335894l-0.109816,-0.0348903l-0.109265,-0.0362178l-0.108652,-0.0375069l-0.108026,-0.0387945l-0.107395,-0.0400613l-0.106807,-0.0413489l-0.106151,-0.0426035l-0.105537,-0.0438675l-0.104819,-0.0450916l-0.104138,-0.0463035l-0.103497,-0.0475474l-0.102794,-0.0487466l-0.102137,-0.0499711l-0.101373,-0.0511385l-0.100687,-0.0523272l-0.0999968,-0.0535294l-0.099212,-0.0546648l-0.0984539,-0.055809l-0.0977365,-0.0569696l-0.0970061,-0.0581303l-0.0962222,-0.0592524l-0.0953965,-0.0603436l-0.0945943,-0.061434l-0.0938673,-0.0625782l-0.0930172,-0.0636475l-0.0922277,-0.0647336l-0.0913917,-0.0658126l-0.0905568,-0.0668574l-0.089739,-0.0679438l-0.0888438,-0.0689445l-0.0880116,-0.0700028l-0.0871364,-0.0710218l-0.0862887,-0.0720626l-0.0853871,-0.0730652l-0.0844564,-0.0740273l-0.0835819,-0.0750383l-0.0826911,-0.0760426l-0.0817662,-0.0770139l-0.0808244,-0.0779682l-0.0798787,-0.0789141l-0.0789284,-0.0798556l-0.0779951,-0.0808129l-0.0770212,-0.0817388l-0.0760441,-0.0826482l-0.0750549,-0.0835563l-0.0740828,-0.084471l-0.0731026,-0.0854001l-0.0720369,-0.0862173l-0.0710405,-0.0871065l-0.0700555,-0.0880344l-0.0689868,-0.0888585l-0.0679377,-0.0896961l-0.0668823,-0.0905393l-0.0658329,-0.0913826l-0.0647562,-0.0922109l-0.0636701,-0.0930083l-0.0625921,-0.0938412l-0.0614725,-0.0946044l-0.0603785,-0.0954118l-0.0592546,-0.0961872l-0.0581378,-0.0969675l-0.0570005,-0.0977404l-0.0558358,-0.0984521l-0.0547024,-0.0992336l-0.0535356,-0.0999725l-0.0523468,-0.100667l-0.0511711,-0.101395l-0.0499758,-0.102101l-0.0487721,-0.102789l-0.0475764,-0.103515l-0.0463436,-0.104179l-0.0450992,-0.104808l-0.0438756,-0.105503l-0.0426234,-0.106158l-0.0413621,-0.106789l-0.0400891,-0.107416l-0.0388164,-0.108043l-0.0375275,-0.108668l-0.0362201,-0.109231l-0.0349178,-0.109835l-0.0336054,-0.110429l-0.0322772,-0.111001l-0.0309399,-0.111553l-0.0295934,-0.112103l-0.0282376,-0.112632l-0.0268748,-0.113169l-0.0255042,-0.113699l-0.0241169,-0.1142l-0.0227247,-0.114682l-0.0213239,-0.115182l-0.0199116,-0.11564l-0.0184936,-0.116114l-0.0170646,-0.116576l-0.0156244,-0.116998l-0.0141788,-0.117434l-0.012723,-0.117858l-0.0112571,-0.118262l-0.00978399,-0.118647l-0.00830179,-0.119045l-0.00681111,-0.119399l-0.00531212,-0.119774l-0.0038047,-0.120114l-0.00228836,-0.120452l-0.000739028,-0.116755l0,-76.862l0.000739037,-0.116746l0.0022884,-0.120449l0.00380485,-0.120108l0.00531221,-0.11976l0.00681128,-0.119397l0.00830182,-0.11903l0.00978417,-0.118649l0.0112573,-0.118249l0.0127225,-0.117854l0.0141793,-0.117433l0.0156252,-0.116998l0.0170636,-0.116558l0.018493,-0.116115l0.0199134,-0.115645l0.0213222,-0.115168l0.0227259,-0.114693l0.0241183,-0.114197l0.0255016,-0.113688l0.0268732,-0.113163l0.0282375,-0.112637l0.0295932,-0.112103l0.0309418,-0.111565l0.0322749,-0.110988l0.0336001,-0.110422l0.0349199,-0.109847l0.0362256,-0.109253l0.0375243,-0.108653l0.0388127,-0.108044l0.0400886,-0.107415l0.0413577,-0.106788l0.0426227,-0.106162l0.0438704,-0.105501l0.0451075,-0.104838l0.046343,-0.104178l0.0475653,-0.103501l0.048771,-0.102797l0.0499746,-0.102109l0.05117,-0.101403l0.0523521,-0.100688l0.0535347,-0.099976l0.0546875,-0.0992171l0.0558416,-0.0984781l0.0569993,-0.0977434l0.0581286,-0.0969679l0.059253,-0.0961951l0.0603683,-0.0954114l0.0614884,-0.0946446l0.0625815,-0.0938306l0.0636684,-0.0930269l0.0647545,-0.0922137l0.065821,-0.091387l0.0668909,-0.0905613l0.067936,-0.0897096l0.068985,-0.0888668l0.0700305,-0.0880187l0.0710501,-0.0871392l0.0720595,-0.0862548l0.0730631,-0.0853644l0.0740803,-0.0844944l0.0750658,-0.083579l0.076042,-0.0826669l0.0770191,-0.081747l0.0779785,-0.0808167l0.0789408,-0.0798839l0.0798918,-0.0789427l0.0808226,-0.077977l0.0817327,-0.0769981l0.0826724,-0.0760464l0.0835957,-0.0750716l0.0844878,-0.0740706l0.0853854,-0.0730742l0.0862518,-0.0720475l0.087134,-0.0710409l0.0880275,-0.0700312l0.0888604,-0.0689732l0.0896994,-0.0679243l0.0905738,-0.0668962l0.0913898,-0.0658164l0.0922058,-0.0647444l0.0930352,-0.0636704l0.0938241,-0.0625704l0.0946336,-0.0614805l0.0954371,-0.0603798l0.0961994,-0.059249l0.0969609,-0.058119l0.0977344,-0.0569894l0.0984743,-0.0558363l0.099233,-0.0546921l0.0999725,-0.0535268l0.100685,-0.0523473l0.101395,-0.0511601l0.102088,-0.049963l0.102816,-0.0487782l0.103495,-0.0475573l0.104161,-0.0463348l0.104867,-0.0451177l0.105487,-0.043857l0.10615,-0.0426189l0.106781,-0.0413492l0.107419,-0.0400914l0.108051,-0.0388087l0.108625,-0.0375134l0.109264,-0.036228l0.109841,-0.0349142l0.110406,-0.0335945l0.110988,-0.0322726l0.111565,-0.0309407l0.1121,-0.0295889l0.11262,-0.0282317l0.113137,-0.0268657l0.113696,-0.025506l0.114214,-0.0241181l0.11467,-0.0227194l0.115141,-0.021316l0.115654,-0.019917l0.116102,-0.0184874l0.116541,-0.0170637l0.117022,-0.0156265l0.117408,-0.0141735l0.117841,-0.0127225l0.11823,-0.011253l0.118638,-0.00978689l0.119036,-0.00829982l0.119391,-0.00681142l0.119737,-0.00530841l0.120097,-0.00380743l0.120446,-0.00228605l0.116724,-0.000739602l30.3972,0l0.116733,0.000739587l0.120455,0.00228599l0.120104,0.00380734l0.119745,0.00530824l0.119403,0.00681134l0.119041,0.00829967l0.118647,0.00978663l0.118238,0.011253l0.117846,0.0127222l0.117416,0.0141734l0.11703,0.0156268l0.116544,0.0170636l0.116101,0.0184865l0.115664,0.0199171l0.115146,0.0213165l0.114675,0.0227195l0.114214,0.0241179l0.113696,0.0255047l0.113146,0.0268666l0.112626,0.0282328l0.112099,0.0295883l0.111567,0.0309405l0.110989,0.0322725l0.110413,0.0335956l0.109846,0.0349162l0.109256,0.0362259l0.108625,0.0375126l0.108065,0.0388138l0.107414,0.0400916l0.106772,0.0413455l0.106158,0.042622l0.105489,0.0438594l0.104862,0.0451169l0.104162,0.0463363l0.103489,0.0475563l0.102821,0.0487813l0.102091,0.0499677l0.101379,0.0511547l0.100684,0.0523477l0.0999867,0.0535373l0.0992189,0.0546895l0.0984632,0.0558316l0.0977398,0.0569956l0.0969589,0.0581217l0.0961942,0.0592498l0.0954318,0.0603806l0.0946249,0.0614791l0.0938269,0.0625758l0.0930344,0.0636761l0.0921889,0.0647381l0.0913857,0.0658173l0.0905814,0.0669076l0.0896868,0.0679228l0.0888444,0.0689658l0.088033,0.0700408l0.0871286,0.071045l0.086238,0.0720426l0.0853862,0.0730816l0.0844899,0.0740816l0.0835855,0.0750731l0.0826448,0.0760307l0.0817286,0.0769991l0.0808245,0.0779889l0.0798896,0.0789496l0.0789241,0.0798796l0.0779744,0.08082l0.0770185,0.0817603l0.0760193,0.0826543l0.0750529,0.0835741l0.0740759,0.0844999l0.0730635,0.0853764l0.0720372,0.0862431l0.0710396,0.0871337l0.0700354,0.088038l0.0689858,0.0888821l0.067912,0.089697l0.0668775,0.0905531l0.0658118,0.0913907l0.0647422,0.0922075l0.0636749,0.0930508l0.0625653,0.0938269l0.0614688,0.0946277l0.0603665,0.0954231l0.0592442,0.096199l0.0581162,0.0969637l0.0569901,0.0977446l0.0558387,0.0984904l0.0546788,0.099224l0.0535073,0.0999457l0.0523472,0.100689l0.0511666,0.101418l0.049968,0.102113l0.0487539,0.102786l0.0475612,0.103505l0.0463364,0.104191l0.0450901,0.104818l0.0438693,0.105518l0.0426112,0.106162l0.0413353,0.10675l0.040086,0.107418l0.0388194,0.108086l0.037502,0.108625l0.0362199,0.109243l0.034919,0.109877l0.0335877,0.110409l0.0322594,0.110962l0.0309423,0.111579l0.0295828,0.112103l0.0282309,0.112624l0.0268662,0.113166l0.0254947,0.113674l0.0241189,0.114224l0.022714,0.114679l0.0213145,0.11514l0.0199118,0.115659l0.0184878,0.116115l0.0170576,0.116545l0.0156226,0.116998l0.0141771,0.117447l0.0127169,0.11785l0.0112527,0.118235l0.00977926,0.118621l0.00830476,0.119044l0.00680603,0.119397l0.00531355,0.119746l0.00380299,0.120132l0.00228546,0.120432l0.000739583,0.116733l0,76.8621l-0.00073956,0.116749l-0.00228533,0.120441l-0.00380279,0.120158l-0.00531334,0.119757l-0.00680571,0.119417l-0.00830452,0.119056l-0.00977885,0.118637l-0.0112522,0.118246l-0.0127163,0.117866l-0.0141769,0.117461l-0.0156225,0.117014l-0.0170584,0.11656l-0.0184867,0.116113l-0.0199096,0.115662l-0.0213157,0.115163l-0.0227169,0.114699l-0.0241175,0.114217l-0.0254915,0.113671l-0.0268672,0.113181l-0.0282339,0.112641l-0.0295826,0.112102l-0.03094,0.111576l-0.0322613,0.110974l-0.0335926,0.110425l-0.0349164,0.109864l-0.0362199,0.109249l-0.0375052,0.108629l-0.0388162,0.108077l-0.040086,0.107418l-0.0413392,0.106761l-0.0426198,0.106178l-0.0438656,0.105498l-0.0450906,0.104819l-0.0463369,0.104182l-0.0475618,0.103506l-0.0487655,0.1028l-0.0499575,0.102081l-0.0511794,0.101444l-0.0523548,0.100682l-0.0534954,0.0999183l-0.0546797,0.0992151l-0.055847,0.0984997l-0.0569913,0.0977309l-0.0581254,0.0969738l-0.0592458,0.0961805l-0.0603595,0.0954068l-0.061488,0.0946414l-0.0625765,0.093828l-0.0636581,0.0930052l-0.0647439,0.0922046l-0.0658238,0.0913863l-0.066869,0.090531l-0.0679356,0.0897124l-0.0689882,0.0888642l-0.0700378,0.0880253l-0.0710301,0.087101l-0.0720393,0.0862351l-0.0730784,0.0853727l-0.0740783,0.0844869l-0.0750687,0.0835708l-0.0759946,0.0826065l-0.0770488,0.081782l-0.0779917,0.0808064l-0.0788828,0.0798221l-0.0799069,0.078951l-0.0808269,0.0779703l-0.0817628,0.0770156l-0.0826318,0.0759872l-0.0835718,0.0750502l-0.0845262,0.0740871l-0.0853547,0.0730337l-0.0862404,0.0720288l-0.0871669,0.0710552l-0.0880178,0.0700024l-0.0888284,0.0689377l-0.0897271,0.0679323l-0.0905651,0.0668693l-0.0913491,0.0657751l-0.0922108,0.0647377l-0.0930569,0.0636705l-0.0938295,0.0625565l-0.0946274,0.0614597l-0.0954343,0.0603612l-0.0962181,0.0592435l-0.0969616,0.0580971l-0.0976982,0.0569503l-0.0984428,0.0558042l-0.0992434,0.0546871l-0.100012,0.0535296l-0.100687,0.0523278l-0.101358,0.0511229l-0.102093,0.0499529l-0.102847,0.0487725l-0.103491,0.0475362l-0.104139,0.0463052l-0.104815,0.0450805l-0.10554,0.0438701l-0.106159,0.0425963l-0.106748,0.0413257l-0.107441,0.0400806l-0.108041,0.0387892l-0.1086,0.0374882l-0.109257,0.0362157l-0.109874,0.0349091l-0.110414,0.0335801l-0.11099,0.032257l-0.111514,0.0309101l-0.112126,0.0295903l-0.112627,0.0282119l-0.113119,0.026855l-0.113751,0.0255013l-0.11416,0.0240907l-0.114621,0.0227034l-0.115228,0.0213265l-0.115665,0.0198961l-0.116019,0.018468l-0.1166,0.0170665l-0.117003,0.0156074l-0.117388,0.01417l-0.117874,0.0127147l-0.118182,0.0112425l-0.118647,0.00978662l-0.119096,0.00829829l-0.119375,0.00679927l-0.11969,0.00530579l-0.120104,0.00380734l-0.120455,0.00228599l-0.116733,0.000739587l-30.3972,0Z" style="fill:#ff6347;"/><path d="M9.33112,136.321l0,-70.8388l41.702,0l0,70.8388l-41.702,0ZM11.8663,133.786l36.6316,0l0,-65.7684l-36.6316,0l0,65.7684Z" style="fill:#ff6347;"/><path d="M38.0588,60.1849c0,0.493627 -0.399339,0.893582 -0.892349,0.893582l-13.2694,0c-0.494243,0 -0.893582,-0.399955 -0.893582,-0.893582c0,-0.492395 0.399339,-0.892349 0.893582,-0.892349l13.2694,0c0.492395,0 0.892349,0.399955 0.892349,0.892349Z" style="fill:#fff;fill-rule:nonzero;stroke-width:1.5px;stroke:#ff6347;"/><circle cx="30.4041" cy="140.734" r="2.3627" style="fill:#fff;stroke-width:1.5px;stroke:#ff6347;"/><g><rect x="15.5242" y="72.3977" width="29.3361" height="37.5056" style="fill:none;stroke-width:1px;stroke-linejoin:miter;stroke:#ffa798;"/><path d="M15.5242,72.3977l29.3361,37.5056" style="fill:none;stroke-width:1px;stroke-linejoin:miter;stroke:#ffa798;"/><path d="M15.5242,109.903l29.3361,-37.5056" style="fill:none;stroke-width:1px;stroke-linejoin:miter;stroke:#ffa798;"/></g><rect x="19.8184" y="117.303" width="20.7477" height="1.72901" style="fill:#ffa697;"/><rect x="21.6852" y="120.852" width="17.0141" height="1.72901" style="fill:#ffa697;"/><rect x="19.8184" y="124.583" width="20.7477" height="1.72901" style="fill:#ffa697;"/><rect x="21.0783" y="128.405" width="18.228" height="1.72901" style="fill:#ffa697;"/></g><g><path d="M126.667,42.3981c0,-3.98078 -3.22706,-7.20784 -7.20784,-7.20784l-63.9988,0c-3.98078,0 -7.20784,3.22706 -7.20784,7.20784l0,112.787c0,3.98078 3.22706,7.20784 7.20784,7.20784l63.9988,0c3.98078,0 7.20784,-3.22706 7.20784,-7.20784l0,-112.787Z" style="fill:#fff;stroke-width:3px;stroke:#ff6347;"/><g><rect x="54.9738" y="49.3867" width="68.046" height="96.2456" style="fill:none;stroke-width:2.28px;stroke-linejoin:miter;stroke:#ff6347;"/><g><rect x="61.3652" y="54.3992" width="57.1634" height="54.5838" style="fill:none;stroke-width:1px;stroke-linejoin:miter;stroke:#ffa798;"/><path d="M61.3652,54.3992l57.1634,54.5838" style="fill:none;stroke-width:1px;stroke-linejoin:miter;stroke:#ffa798;"/><path d="M61.3652,108.983l57.1634,-54.5838" style="fill:none;stroke-width:1px;stroke-linejoin:miter;stroke:#ffa798;"/></g><rect x="70.9916" y="122.6" width="36.0457" height="2.24354" style="fill:#ffa697;"/><rect x="74.2348" y="127.205" width="29.5593" height="2.24354" style="fill:#ffa697;"/><rect x="70.9916" y="132.046" width="36.0457" height="2.24354" style="fill:#ffa697;"/><rect x="73.1804" y="137.005" width="31.6682" height="2.24354" style="fill:#ffa697;"/></g><circle cx="88.9968" cy="43.0426" r="1.13115" style="fill:#fff;stroke-width:1.5px;stroke:#ff6347;"/></g><circle cx="88.9968" cy="153.065" r="2.60715" style="fill:#fff;stroke-width:1.5px;stroke:#ff6347;"/><g><path d="M297.655,31.7484c0,-3.09539 -2.50931,-5.60471 -5.60471,-5.60471l-167.528,0c-3.09539,0 -5.60471,2.50931 -5.60471,5.60471l0,134.086c0,3.09539 2.50931,5.60471 5.60471,5.60471l167.528,0c3.09539,0 5.60471,-2.50931 5.60471,-5.60471l0,-134.086Z" style="fill:#fff;"/><path d="M124.526,169.94l167.519,0l0.0582988,-0.000379293l0.0532831,-0.00100461l0.0529677,-0.00168213l0.0528061,-0.0023378l0.052489,-0.00299718l0.052517,-0.00366487l0.0521796,-0.00429488l0.0518296,-0.00493372l0.0517049,-0.00558004l0.0515381,-0.00622144l0.0511936,-0.00683177l0.0510786,-0.0074796l0.0508699,-0.00809469l0.0503354,-0.0086645l0.0503543,-0.0093329l0.0502234,-0.00994751l0.0498959,-0.0105407l0.0496956,-0.0111413l0.0494338,-0.0117396l0.0491955,-0.0123244l0.0488863,-0.012903l0.0486587,-0.0134894l0.0483947,-0.0140727l0.048229,-0.0146728l0.0478967,-0.0152225l0.047573,-0.0157729l0.0475973,-0.0164415l0.0471594,-0.0169264l0.0466892,-0.0174291l0.0466753,-0.0180778l0.0464698,-0.018657l0.0461955,-0.0191991l0.0455542,-0.0195921l0.0454786,-0.0202396l0.0453568,-0.0208365l0.04483,-0.0212688l0.0448144,-0.0219332l0.0443126,-0.0223476l0.0439445,-0.0228517l0.043787,-0.02344l0.0433938,-0.0239176l0.0431895,-0.0244877l0.0426863,-0.0248855l0.0425849,-0.0255355l0.0422505,-0.0260062l0.0415565,-0.0262937l0.0414766,-0.0269521l0.0413657,-0.02759l0.0406969,-0.0278372l0.0402954,-0.0283088l0.0403923,-0.0290891l0.0397753,-0.029364l0.03906,-0.0295744l0.0389727,-0.0302723l0.0390366,-0.031056l0.0381736,-0.0311006l0.0376785,-0.0314879l0.0377021,-0.0322683l0.037007,-0.0324354l0.036702,-0.0329754l0.0365256,-0.0335892l0.0358126,-0.0337308l0.0354035,-0.0341646l0.0352919,-0.0348797l0.0345876,-0.0349836l0.0341553,-0.0354198l0.034025,-0.0361113l0.0333048,-0.0362037l0.0329605,-0.0367124l0.0326143,-0.0371983l0.0321037,-0.0375099l0.0316478,-0.0378826l0.031271,-0.038357l0.0305778,-0.0384196l0.0302494,-0.0390018l0.0300824,-0.0397139l0.029258,-0.0396016l0.0287833,-0.0399726l0.0284015,-0.040453l0.0279914,-0.0409095l0.0274237,-0.04111l0.0269251,-0.0414616l0.0264816,-0.0418461l0.0259204,-0.0420983l0.0256214,-0.0427409l0.0248147,-0.0425304l0.0243454,-0.0429736l0.0241328,-0.0437842l0.0234329,-0.0437481l0.0228252,-0.0438947l0.0223488,-0.0443022l0.0218588,-0.0446624l0.0212645,-0.0448338l0.0207153,-0.0450953l0.0203786,-0.0458453l0.0197793,-0.0459299l0.0189939,-0.0456891l0.0185904,-0.0463358l0.0180789,-0.046691l0.0175881,-0.0471493l0.0169721,-0.0472029l0.016269,-0.0471219l0.0157544,-0.04753l0.0153374,-0.0482986l0.0146989,-0.0482308l0.0139215,-0.0479181l0.0135725,-0.0489918l0.012938,-0.0489706l0.0122705,-0.0489932l0.0118031,-0.0497141l0.0111628,-0.0497218l0.0104942,-0.0496762l0.00990518,-0.0500097l0.00932082,-0.0503707l0.00873266,-0.0507314l0.00808289,-0.0507157l0.00746248,-0.0510362l0.00686896,-0.0513891l0.0062018,-0.0513626l0.00557766,-0.0516829l0.00491638,-0.0516474l0.00429698,-0.0523614l0.00369054,-0.0526999l0.00298676,-0.0523065l0.00232977,-0.0526246l0.00166928,-0.0529675l0.00100461,-0.0532829l0.000365267,-0.0583162l0,-134.077l-0.000365261,-0.0583031l-0.00100463,-0.0532919l-0.00166924,-0.0529597l-0.00232991,-0.0526327l-0.00298646,-0.0522997l-0.00369033,-0.0526953l-0.00429737,-0.052363l-0.00491755,-0.0516629l-0.00557827,-0.0516933l-0.00620038,-0.0513557l-0.00686815,-0.0513798l-0.00746345,-0.0510445l-0.0080805,-0.0507006l-0.00873165,-0.0507207l-0.00932205,-0.0503758l-0.00990966,-0.0500307l-0.0104946,-0.0496842l-0.0111573,-0.0496954l-0.0118002,-0.0497003l-0.0122714,-0.0489921l-0.012944,-0.0489933l-0.0135709,-0.0489876l-0.0139234,-0.0479231l-0.0147095,-0.0482689l-0.0153202,-0.0482511l-0.0157614,-0.0475416l-0.0162823,-0.0471715l-0.0169507,-0.0471417l-0.0175786,-0.0471224l-0.0180972,-0.046732l-0.018594,-0.0463527l-0.0189798,-0.0456504l-0.019775,-0.0459215l-0.0203902,-0.045865l-0.0207411,-0.0451578l-0.0212296,-0.0447634l-0.0218726,-0.0446843l-0.022339,-0.0442908l-0.022825,-0.0438847l-0.0234601,-0.043807l-0.0240821,-0.0436905l-0.0243561,-0.0429862l-0.0248453,-0.0425844l-0.0256154,-0.0427325l-0.0258935,-0.0420547l-0.0265232,-0.041907l-0.0269259,-0.0414724l-0.0273865,-0.0410495l-0.0279829,-0.0408987l-0.028417,-0.0404686l-0.0288168,-0.0400238l-0.0292588,-0.0396027l-0.0300382,-0.0396604l-0.030221,-0.0389572l-0.0306529,-0.0385139l-0.0312226,-0.0383025l-0.0316371,-0.0378618l-0.0321967,-0.0376217l-0.0325732,-0.0371578l-0.0329611,-0.0367099l-0.0333167,-0.036223l-0.0338984,-0.0359753l-0.0342599,-0.0355171l-0.0346244,-0.0350336l-0.035156,-0.034739l-0.0355162,-0.0342686l-0.0358654,-0.0337885l-0.0364074,-0.0334821l-0.0367283,-0.0329927l-0.0370762,-0.0325009l-0.0375756,-0.0321616l-0.037706,-0.0315013l-0.038276,-0.0311889l-0.0389175,-0.0309628l-0.0390175,-0.0302991l-0.0391689,-0.0296632l-0.0396818,-0.0292982l-0.0403278,-0.0290395l-0.0403926,-0.0283739l-0.0407474,-0.0278781l-0.0411979,-0.0274797l-0.0414752,-0.0269416l-0.0417469,-0.0264158l-0.0422167,-0.0259934l-0.0424604,-0.0254593l-0.0427582,-0.0249242l-0.0431714,-0.0244822l-0.0432819,-0.0238512l-0.04388,-0.0234849l-0.044078,-0.0229242l-0.0442174,-0.022306l-0.0447755,-0.0219093l-0.0448496,-0.0212813l-0.0452769,-0.0207966l-0.0455986,-0.0202898l-0.0455954,-0.0196162l-0.0461141,-0.0191653l-0.0464698,-0.018657l-0.046571,-0.0180374l-0.0467724,-0.0174522l-0.0471806,-0.0169404l-0.0475117,-0.0164056l-0.04768,-0.0158083l-0.0479185,-0.015231l-0.0481639,-0.0146546l-0.0483944,-0.0140694l-0.0487027,-0.0135032l-0.0489749,-0.0129264l-0.0491962,-0.0123325l-0.0493225,-0.0117132l-0.0496508,-0.0111313l-0.0499181,-0.0105422l-0.0501333,-0.00993126l-0.0503311,-0.00931903l-0.0505393,-0.00869959l-0.0508021,-0.00808869l-0.0510783,-0.00747476l-0.0512394,-0.00684267l-0.0514924,-0.00621432l-0.0517278,-0.00558411l-0.0518979,-0.00494022l-0.0521343,-0.00429755l-0.0523801,-0.00365212l-0.0526027,-0.00300046l-0.052761,-0.00234062l-0.0530126,-0.00167713l-0.0532385,-0.00101181l-0.0581855,-0.000368041l-167.519,0l-0.0581872,0.000368052l-0.0532443,0.0010118l-0.0530062,0.00167713l-0.0527674,0.00234062l-0.05259,0.0030001l-0.0523853,0.00365248l-0.0521343,0.00429755l-0.0519078,0.00494116l-0.0517255,0.00558316l-0.051486,0.00621433l-0.0512457,0.00684267l-0.0510575,0.00747265l-0.0507998,0.00808832l-0.0505474,0.00870209l-0.0503553,0.00932233l-0.0501356,0.00993172l-0.0498865,0.0105341l-0.0496571,0.0111355l-0.0494021,0.011729l-0.0491626,0.0123225l-0.0489038,0.0129076l-0.0486856,0.013502l-0.0484695,0.0140912l-0.0482,0.0146637l-0.0479007,0.0152233l-0.0476527,0.0157993l-0.0474508,0.0163845l-0.0471323,0.0169276l-0.0468567,0.0174861l-0.0466771,0.018076l-0.0463521,0.0186046l-0.0460231,0.0191354l-0.0458044,0.0197061l-0.0455136,0.0202435l-0.045258,0.0207967l-0.044945,0.0213175l-0.0446171,0.0218349l-0.0443265,0.0223642l-0.0440521,0.0229042l-0.0437439,0.023419l-0.0433953,0.0239172l-0.0431353,0.0244582l-0.0428298,0.0249734l-0.0424812,0.0254603l-0.0421175,0.0259402l-0.0417961,0.0264429l-0.041514,0.026971l-0.0411667,0.0274503l-0.0407808,0.0279097l-0.0404597,0.0284075l-0.0400903,0.0288731l-0.0397588,0.0293646l-0.0393638,0.029806l-0.0389868,0.0302653l-0.03868,0.0307738l-0.038301,0.0312249l-0.0378552,0.0316206l-0.0374795,0.0320794l-0.0371663,0.0325855l-0.0367424,0.0329938l-0.036304,0.0333929l-0.0359133,0.0338337l-0.0355162,0.0342686l-0.0351067,0.0346903l-0.0346661,0.0350823l-0.0342663,0.0355171l-0.0338919,0.0359753l-0.0334212,0.0363296l-0.0329207,0.0366577l-0.0325254,0.0371033l-0.0321482,0.037565l-0.0316781,0.0379185l-0.0311809,0.0382435l-0.0307348,0.038633l-0.0302887,0.0390196l-0.0297975,0.039351l-0.0293841,0.0397896l-0.028876,0.0400884l-0.0283653,0.0404041l-0.0279894,0.0408988l-0.0274252,0.0411171l-0.0268948,0.0414049l-0.0265103,0.0419068l-0.0259499,0.0421255l-0.0254377,0.0424467l-0.0250003,0.042872l-0.0244176,0.043061l-0.0239123,0.043394l-0.0234123,0.0437297l-0.0229299,0.044111l-0.0223909,0.0443682l-0.0217901,0.0445288l-0.0213416,0.0449994l-0.0207913,0.0452393l-0.0202185,0.0454646l-0.01972,0.0458383l-0.0191495,0.0460587l-0.0186074,0.0463543l-0.0180653,0.0466497l-0.0174911,0.0468708l-0.016931,0.04714l-0.0163768,0.0474269l-0.0157901,0.047628l-0.015251,0.0479929l-0.0146635,0.0481807l-0.0140568,0.0483604l-0.0135109,0.0487251l-0.0129311,0.0489928l-0.0123289,0.0491704l-0.0117155,0.0493438l-0.0111242,0.0496048l-0.010526,0.0498632l-0.00994536,0.050211l-0.00932851,0.0503762l-0.00870045,0.0505395l-0.00808852,0.0507911l-0.0074699,0.0510448l-0.00683738,0.0511974l-0.00621596,0.0515377l-0.00559455,0.0517849l-0.00493487,0.0518449l-0.00429419,0.0520903l-0.00365186,0.0524209l-0.00300209,0.0525734l-0.00233393,0.0527235l-0.00168139,0.0531409l-0.00101577,0.0532012l-0.000364126,0.0581219l0,134.077l0.000364132,0.058135l0.00101576,0.0531922l0.00168143,0.0531488l0.00233379,0.0527153l0.00300239,0.0525802l0.00365207,0.0524255l0.0042938,0.0520887l0.0049337,0.0518294l0.00559394,0.0517744l0.00621738,0.0515447l0.00683819,0.0512066l0.00746893,0.0510366l0.00809092,0.0508061l0.00870147,0.0505502l0.00932728,0.0503711l0.00994088,0.0501899l0.0105257,0.0498551l0.0111297,0.0496312l0.0117185,0.0493576l0.0123279,0.0491716l0.0129251,0.04897l0.0135125,0.0487293l0.0140549,0.0483554l0.0146529,0.0481426l0.0152681,0.0480403l0.015783,0.0476164l0.0163635,0.0473772l0.0169524,0.0472012l0.0175006,0.0468977l0.018047,0.0466087l0.0186038,0.0463374l0.0191636,0.0460974l0.0197243,0.0458467l0.020207,0.0454449l0.0207655,0.0451768l0.0213765,0.0450698l0.0217763,0.0445068l0.0224007,0.0443797l0.0229301,0.044121l0.0233851,0.0436709l0.023963,0.0434877l0.0244069,0.0430484l0.0249697,0.0428181l0.0254437,0.0424551l0.0259768,0.0421692l0.0264687,0.0418459l0.026894,0.0413941l0.0274624,0.0411776l0.0279978,0.0409095l0.0283498,0.0403884l0.0288426,0.0400372l0.0293832,0.0397884l0.0298416,0.0394045l0.030317,0.0390642l0.0306598,0.0385386l0.0312293,0.0382981l0.0316888,0.0379394l0.0320552,0.0374532l0.0325666,0.0371438l0.0329201,0.0366603l0.0334093,0.0363103l0.0340185,0.0361113l0.0341617,0.0354198l0.0346294,0.0350322l0.0352426,0.034831l0.0354035,0.0341646l0.0358606,0.033776l0.0364222,0.0335l0.036716,0.0329766l0.0370971,0.03252l0.037606,0.032186l0.0378277,0.0316073l0.0381986,0.0311366l0.0387991,0.030867l0.0389421,0.0302386l0.039255,0.0297172l0.0398523,0.0294304l0.0401548,0.0289228l0.0403625,0.0283424l0.0407303,0.0278687l0.0413345,0.0275606l0.0415154,0.0269815l0.0416057,0.0263208l0.0421513,0.025953l0.0426057,0.0255365l0.0427579,0.0249346l0.0431534,0.0244636l0.0435071,0.0239836l0.043651,0.023374l0.0439186,0.0228316l0.0444217,0.0224059l0.044656,0.0218588l0.0449254,0.021305l0.0453378,0.0208366l0.0453936,0.0201933l0.0457632,0.019682l0.0461045,0.0191693l0.0463521,0.0186046l0.0467814,0.0181164l0.0467736,0.017463l0.047111,0.0169136l0.0475364,0.0164205l0.0475457,0.0157638l0.0478789,0.0152148l0.048265,0.0146819l0.0484697,0.0140945l0.0486416,0.0134882l0.0488153,0.0128843l0.0491619,0.0123144l0.0495134,0.0117554l0.0497019,0.0111456l0.0498643,0.0105326l0.0502257,0.00994797l0.0503785,0.00933621l0.0503436,0.008667l0.0508676,0.00809432l0.0510578,0.00747749l0.0511999,0.00683176l0.0515318,0.00622145l0.0517026,0.00557909l0.0518395,0.00493466l0.0521796,0.00429488l0.0525222,0.00366524l0.0524763,0.00299681l0.0528125,0.0023378l0.0529613,0.00168213l0.053289,0.0010046l0.0583005,0.000379304ZM124.517,172.94l-0.0865748,-0.000563258l-0.09115,-0.00171836l-0.0910238,-0.00289105l-0.0907188,-0.00401577l-0.0905663,-0.00517206l-0.0900491,-0.00628403l-0.0899029,-0.00739987l-0.0897194,-0.00854049l-0.0893501,-0.00964154l-0.0889973,-0.0107447l-0.0887706,-0.0118449l-0.088389,-0.0129447l-0.0880032,-0.0140035l-0.0879512,-0.0151414l-0.0873229,-0.0161828l-0.0868996,-0.0172118l-0.0866502,-0.0183028l-0.0862016,-0.0193306l-0.0857618,-0.0203615l-0.0854674,-0.0214084l-0.0851682,-0.0224793l-0.0846786,-0.0234812l-0.0841872,-0.0244807l-0.0837111,-0.0254643l-0.0833991,-0.0265023l-0.0830166,-0.0275242l-0.0823277,-0.0284385l-0.08202,-0.0294465l-0.0816069,-0.030468l-0.0808659,-0.0313158l-0.0805447,-0.0323287l-0.0800068,-0.0332651l-0.0795626,-0.0342186l-0.0791467,-0.0352084l-0.0783997,-0.0360313l-0.0780091,-0.0369942l-0.0774407,-0.0379066l-0.0768372,-0.0387559l-0.0764849,-0.0397615l-0.0759147,-0.0406504l-0.0751684,-0.0414371l-0.0746494,-0.0423186l-0.0741547,-0.043244l-0.0734167,-0.0440036l-0.072946,-0.0449137l-0.0725665,-0.0459074l-0.0717143,-0.0466082l-0.07097,-0.0473207l-0.0705968,-0.0483042l-0.0700046,-0.0491571l-0.0692347,-0.0498684l-0.0685423,-0.0506176l-0.0681447,-0.0515875l-0.0674278,-0.0523578l-0.0665584,-0.0529512l-0.0661291,-0.0539035l-0.0654527,-0.0546895l-0.0646096,-0.0552977l-0.0640538,-0.0561507l-0.0633701,-0.0569159l-0.0625642,-0.0575445l-0.0620262,-0.0584205l-0.0613662,-0.0592188l-0.06041,-0.0597044l-0.0598887,-0.0605854l-0.0592043,-0.0613848l-0.0581955,-0.0617755l-0.0576527,-0.0626587l-0.0569549,-0.0634258l-0.0561041,-0.0639896l-0.0554285,-0.0647625l-0.0545905,-0.0653585l-0.0538281,-0.0660121l-0.0531584,-0.0668189l-0.0522619,-0.0673406l-0.0514805,-0.0679777l-0.0506647,-0.0686062l-0.0499486,-0.0693349l-0.0491323,-0.0699961l-0.0481926,-0.0704175l-0.0474364,-0.0711269l-0.0466607,-0.0718181l-0.0457595,-0.0723437l-0.0449248,-0.0729281l-0.044079,-0.0735499l-0.0432089,-0.0740946l-0.0423929,-0.0747718l-0.0414403,-0.0752053l-0.0406219,-0.07586l-0.039663,-0.0763175l-0.038796,-0.0768617l-0.0379717,-0.0776073l-0.0369227,-0.0778473l-0.0361024,-0.0785432l-0.0351773,-0.0791129l-0.0341937,-0.0794791l-0.0332707,-0.0800314l-0.0323294,-0.0805245l-0.0313851,-0.0810561l-0.030413,-0.0815002l-0.0294252,-0.0819298l-0.028478,-0.082452l-0.027505,-0.0829808l-0.026449,-0.0832202l-0.0255107,-0.0838161l-0.0245029,-0.0843015l-0.0234569,-0.0845909l-0.0224384,-0.0850134l-0.0214297,-0.0854752l-0.0203985,-0.0859175l-0.0193464,-0.0862723l-0.0182923,-0.0866418l-0.0172189,-0.0869354l-0.0161743,-0.0873476l-0.0151069,-0.0877621l-0.0140244,-0.0880647l-0.0129358,-0.0883928l-0.011856,-0.0887813l-0.0107313,-0.0889669l-0.00964414,-0.0892608l-0.00854145,-0.0897295l-0.00741841,-0.0899938l-0.00627974,-0.0901457l-0.00516649,-0.0904797l-0.00401978,-0.0907985l-0.00287428,-0.0908538l-0.00174211,-0.0912293l-0.000543521,-0.0867752l0,-134.096l0.000543526,-0.0867578l0.00174209,-0.0912421l0.00287433,-0.0908442l0.00401963,-0.0908034l0.00516678,-0.0904822l0.00627995,-0.090146l0.00741801,-0.0899835l0.00854027,-0.0897227l0.00964353,-0.0892634l0.0107327,-0.0889869l0.0118568,-0.0887818l0.0129348,-0.0883889l0.0140268,-0.0880797l0.015108,-0.0877597l0.016173,-0.0873382l0.0172144,-0.08691l0.0182919,-0.0866512l0.019352,-0.0862943l0.0204014,-0.085927l0.0214288,-0.0854633l0.0224324,-0.0849907l0.0234585,-0.0845995l0.024501,-0.0842921l0.0255001,-0.0837867l0.0264661,-0.0832851l0.027498,-0.082943l0.0284647,-0.0824329l0.0294466,-0.0819866l0.0304224,-0.0815227l0.0313668,-0.0809977l0.0323258,-0.0805294l0.0332848,-0.080057l0.034198,-0.0794919l0.0351657,-0.0790757l0.0360766,-0.0784981l0.0369576,-0.0779264l0.0379578,-0.0775679l0.0388058,-0.076895l0.0396632,-0.0763013l0.0405946,-0.075823l0.0414911,-0.0752946l0.0423821,-0.0747418l0.0431784,-0.0740449l0.044085,-0.0735627l0.0449517,-0.0729718l0.0457179,-0.0722697l0.0466599,-0.0718335l0.0474735,-0.0711744l0.0482011,-0.0704326l0.0491168,-0.069963l0.0499152,-0.0692968l0.0506639,-0.068605l0.0515247,-0.0680443l0.0522903,-0.0673634l0.0530834,-0.0667245l0.0538766,-0.0660798l0.0546012,-0.0653575l0.0553355,-0.0646593l0.0561452,-0.0640475l0.0569544,-0.0634197l0.0576408,-0.0626569l0.058322,-0.0619071l0.0590997,-0.061257l0.0598519,-0.0605703l0.0605458,-0.0598277l0.0612535,-0.0591018l0.0619735,-0.0583847l0.0626824,-0.057656l0.0633437,-0.0568812l0.0639846,-0.0560983l0.0647361,-0.0554087l0.0654252,-0.05465l0.0660267,-0.0538283l0.0666775,-0.0530487l0.067383,-0.0523092l0.0680359,-0.0515162l0.0686358,-0.0506921l0.0692992,-0.0499094l0.0699073,-0.0490833l0.0705463,-0.0482807l0.0711379,-0.0474354l0.0717156,-0.0465925l0.072376,-0.0457897l0.0729798,-0.0449483l0.0735412,-0.0440755l0.0740828,-0.0431966l0.0746675,-0.0423372l0.0752803,-0.0414905l0.0758218,-0.0405923l0.0763515,-0.0396977l0.0769324,-0.038815l0.0774796,-0.0379174l0.0779895,-0.0369905l0.0784795,-0.0360625l0.0790267,-0.0351495l0.0795215,-0.034212l0.0800882,-0.033299l0.0805447,-0.0323287l0.0809702,-0.0313562l0.0815237,-0.0304231l0.0819987,-0.0294499l0.0824133,-0.028457l0.0829096,-0.0274888l0.0833773,-0.0264981l0.0837761,-0.0254869l0.0841874,-0.0244753l0.0846346,-0.0234717l0.0850797,-0.0224559l0.0854667,-0.0214221l0.085873,-0.0203879l0.0862464,-0.0193406l0.0866279,-0.0182925l0.0869897,-0.0172324l0.0873461,-0.0161705l0.0877474,-0.0151063l0.088071,-0.0140226l0.0883893,-0.0129364l0.0887248,-0.0118471l0.089043,-0.0107474l0.0893272,-0.00964183l0.0896511,-0.00853399l0.0899482,-0.00741465l0.0901859,-0.00628806l0.0904525,-0.00516004l0.0907639,-0.00402604l0.0909789,-0.00287859l0.0911946,-0.00173297l0.086688,-0.000548328l167.538,0l0.0866898,0.000548339l0.091183,0.00173296l0.09099,0.00287859l0.0907528,0.00402604l0.0904573,0.00515968l0.0901911,0.00628842l0.0899482,0.00741465l0.0896609,0.00853493l0.0893074,0.00964089l0.0890541,0.0107474l0.0887136,0.0118471l0.0883859,0.0129343l0.0880687,0.0140222l0.087773,0.0151088l0.0873528,0.0161738l0.086992,0.0172329l0.0865789,0.0182845l0.0862876,0.0193449l0.0859177,0.0204038l0.0854157,0.0214121l0.0850086,0.0224371l0.0846524,0.0234705l0.0842625,0.0244971l0.0837948,0.0254959l0.083342,0.0264905l0.0828823,0.0274797l0.0823524,0.0284359l0.0819853,0.0294371l0.0816255,0.030457l0.0810589,0.0313948l0.0803921,0.0322763l0.0800495,0.0332691l0.0797304,0.0343019l0.0788894,0.0351031l0.0785129,0.0360626l0.0780325,0.0370267l0.0773386,0.037843l0.0770589,0.0388733l0.0762907,0.0396776l0.0757207,0.0405264l0.0754111,0.0415565l0.074614,0.0423131l0.0741893,0.0432457l0.0735097,0.0440765l0.0729155,0.0448951l0.0724078,0.0458168l0.0717719,0.0466218l0.0710717,0.047406l0.0706146,0.0483123l0.0699221,0.0491169l0.0690792,0.049743l0.0687477,0.0507585l0.0682134,0.051659l0.0673175,0.0522755l0.06644,0.0528597l0.066104,0.0538643l0.0655569,0.0547693l0.06464,0.0553265l0.0640921,0.0561829l0.0633229,0.0568824l0.0625965,0.0575668l0.0620214,0.0584299l0.0612535,0.0591018l0.0604966,0.059779l0.059911,0.060619l0.0590887,0.061257l0.0583331,0.0619071l0.0577278,0.0627635l0.0568965,0.0633675l0.0560975,0.0639931l0.055287,0.0646026l0.0546597,0.0654142l0.0538175,0.0660208l0.0532002,0.0668436l0.0523055,0.0674258l0.0513014,0.0677349l0.050824,0.0687919l0.0499395,0.0693614l0.0490825,0.0698984l0.0481901,0.0704327l0.0475297,0.0712419l0.0465939,0.071766l0.0457399,0.0722696l0.0449732,0.0730426l0.0439248,0.0732768l0.0433683,0.0743326l0.0423913,0.0748166l0.0413387,0.0749981l0.0405643,0.0757457l0.039803,0.0765276l0.0388228,0.0769725l0.0378928,0.0774124l0.0370696,0.0781624l0.0360919,0.0785797l0.0349766,0.0786754l0.0341954,0.0794087l0.0334546,0.0804653l0.0323043,0.080531l0.0313349,0.0809154l0.0303175,0.0812711l0.0294792,0.0819849l0.0285417,0.0826882l0.0275266,0.0830295l0.0263619,0.0830269l0.0255064,0.0836985l0.0246169,0.0847294l0.0233636,0.0843369l0.0224544,0.0849901l0.0214513,0.0856416l0.0203167,0.0855705l0.0193538,0.0862037l0.0183408,0.0868302l0.0172501,0.0870902l0.016162,0.0873387l0.0150768,0.0875785l0.0140523,0.0881702l0.0129238,0.0883893l0.0118434,0.0885994l0.0107657,0.089169l0.00964236,0.089355l0.0085576,0.0899047l0.00736247,0.0897108l0.00629384,0.0898716l0.00518241,0.0907559l0.00402365,0.0908942l0.00286903,0.0910254l0.00171833,0.0911513l0.000542391,0.0865766l0,134.096l-0.000542386,0.086594l-0.00171835,0.0911386l-0.00286898,0.091035l-0.0040238,0.0908892l-0.00518211,0.0907534l-0.00629363,0.0898713l-0.00736286,0.0897211l-0.00855877,0.0899114l-0.00964298,0.0893523l-0.0107643,0.0891489l-0.0118426,0.0885988l-0.0129248,0.0883932l-0.0140499,0.0881551l-0.0150758,0.0875809l-0.0161633,0.0873481l-0.0172546,0.0871156l-0.0183412,0.0868208l-0.0193483,0.0861817l-0.0203138,0.085561l-0.0214522,0.0856535l-0.0224604,0.0850129l-0.023362,0.0843283l-0.0246189,0.0847388l-0.0255171,0.0837279l-0.0263448,0.0829619l-0.0275337,0.0830673l-0.028555,0.0827073l-0.0294578,0.0819281l-0.0303081,0.0812486l-0.0313533,0.0809738l-0.0323079,0.0805261l-0.0334405,0.0804397l-0.0341911,0.079396l-0.0349882,0.0787125l-0.0361177,0.0786247l-0.0370347,0.0780833l-0.0379067,0.0774518l-0.038813,0.0769392l-0.0398028,0.0765438l-0.0405915,0.0757827l-0.041288,0.0749088l-0.042402,0.0748466l-0.0433988,0.0743822l-0.0439187,0.0732641l-0.0449463,0.072999l-0.0457815,0.0723435l-0.0465947,0.0717506l-0.0474925,0.0711945l-0.0481816,0.0704176l-0.049098,0.0699315l-0.049973,0.0693995l-0.0508249,0.0687931l-0.0512572,0.0676684l-0.0522771,0.067403l-0.0532753,0.0669379l-0.053769,0.0659532l-0.054649,0.0654152l-0.05538,0.0647057l-0.0560563,0.0639351l-0.0568971,0.0633737l-0.0577397,0.0627653l-0.0582065,0.0617755l-0.0591933,0.0613848l-0.0599478,0.0606341l-0.0603607,0.0596558l-0.0613662,0.0592188l-0.0620742,0.0584657l-0.0624783,0.0574553l-0.0633493,0.0569171l-0.0641613,0.0562352l-0.0645135,0.0552154l-0.0655844,0.0548089l-0.0662064,0.0539394l-0.0663209,0.0527622l-0.0673623,0.0523241l-0.0683222,0.0517303l-0.0686543,0.0506839l-0.0690147,0.0497021l-0.0700193,0.0491908l-0.0706651,0.0483358l-0.0709039,0.0472913l-0.0717705,0.0466376l-0.0725982,0.0459345l-0.0728817,0.0448605l-0.0733852,0.0440046l-0.0742612,0.0432932l-0.0745959,0.0422946l-0.0752992,0.0415032l-0.0758136,0.0405844l-0.0764242,0.0397414l-0.0769637,0.0388142l-0.0772997,0.0378322l-0.0780522,0.0370304l-0.0784331,0.0360314l-0.0790094,0.0351621l-0.0797716,0.0343085l-0.0799681,0.0332352l-0.0803921,0.0322763l-0.0809545,0.0313544l-0.0817087,0.0305019l-0.0820065,0.0294337l-0.0822668,0.0284174l-0.0829893,0.0275152l-0.0833638,0.0264946l-0.0837297,0.0254733l-0.0842622,0.0245026l-0.0846964,0.02348l-0.0850972,0.0224605l-0.0854163,0.0213984l-0.0858064,0.0203773l-0.0862428,0.0193349l-0.0866011,0.0182948l-0.0869019,0.0172122l-0.0873296,0.0161861l-0.0879768,0.0151439l-0.0880009,0.0140032l-0.0883857,0.0129426l-0.0887594,0.0118449l-0.0890084,0.0107447l-0.0893303,0.0096406l-0.0897292,0.00854142l-0.0899029,0.00739987l-0.0900542,0.00628439l-0.090571,0.0051717l-0.0907077,0.00401576l-0.0910349,0.00289105l-0.0911383,0.00171834l-0.0865765,0.000563269l-167.538,0Z" style="fill:#ff6347;"/><path d="M118.917,51.4943l178.738,0" style="fill:none;stroke-width:3px;stroke:#ff6347;"/><g><rect x="149" y="61.7282" width="120.239" height="59.824" style="fill:none;stroke-width:1px;stroke-linejoin:miter;stroke:#ffa798;"/><path d="M149,61.7282l120.239,59.824" style="fill:none;stroke-width:1px;stroke-linejoin:miter;stroke:#ffa798;"/><path d="M149,121.552l120.239,-59.824" style="fill:none;stroke-width:1px;stroke-linejoin:miter;stroke:#ffa798;"/></g><rect x="175.56" y="145.217" width="67.1184" height="2.6711" style="fill:#ffa697;"/><rect x="157.555" y="132.741" width="103.128" height="5.55633" style="fill:#ffa697;"/><rect x="181.599" y="150.7" width="55.0403" height="2.6711" style="fill:#ffa697;"/><rect x="175.56" y="156.464" width="67.1184" height="2.6711" style="fill:#ffa697;"/><rect x="179.636" y="162.368" width="58.9672" height="2.6711" style="fill:#ffa697;"/><circle cx="130.294" cy="39.9126" r="4.8854" style="fill:none;stroke-width:1px;stroke:#ff6347;"/><circle cx="144.968" cy="39.9126" r="4.8854" style="fill:none;stroke-width:1px;stroke:#ff6347;"/><circle cx="159.734" cy="39.9126" r="4.8854" style="fill:none;stroke-width:1px;stroke:#ff6347;"/><path d="M290.996,36.6146c0,-1.60964 -1.30487,-2.91451 -2.91451,-2.91451l-114.505,0c-1.60964,0 -2.91451,1.30487 -2.91451,2.91451l0,7.12779c0,1.60964 1.30487,2.91451 2.91451,2.91451l114.505,0c1.60964,0 2.91451,-1.30487 2.91451,-2.91451l0,-7.12779Z" style="fill:none;stroke-width:1px;stroke:#ff6347;"/></g></g><g id="Layer1"></g></svg>