<?xml version="1.0" standalone="no"?><!DOCTYPE svg PUBLIC "-//W3C//DTD SVG 1.1//EN" "http://www.w3.org/Graphics/SVG/1.1/DTD/svg11.dtd"><svg width="100%" height="100%" viewBox="0 0 300 200" version="1.1" xmlns="http://www.w3.org/2000/svg" xmlns:xlink="http://www.w3.org/1999/xlink" xml:space="preserve" style="fill-rule:evenodd;clip-rule:evenodd;stroke-linecap:round;stroke-linejoin:round;stroke-miterlimit:1.41421;"><g id="Layer1"><g><path d="M243,111.816c0,-8.2847 -6.71608,-15.0008 -15.0008,-15.0008l-209.998,0c-8.2847,0 -15.0008,6.71608 -15.0008,15.0008l0,30.0354c0,8.2847 6.71608,15.0008 15.0008,15.0008l209.998,0c8.2847,0 15.0008,-6.71608 15.0008,-15.0008l0,-30.0354Z" style="fill:#ffa797;stroke-width:3px;stroke:#fff;"/><g><rect x="19.5842" y="112.867" width="21" height="4" style="fill:#fff;"/><rect x="19.5842" y="136.8" width="28" height="4" style="fill:#fff;"/><rect x="19.5842" y="128.8" width="21.009" height="4" style="fill:#fff;"/><rect x="19.5842" y="120.734" width="28" height="4" style="fill:#fff;"/></g><g><rect x="112.584" y="112.84" width="21" height="4" style="fill:#fff;"/><rect x="105.584" y="136.774" width="28" height="4" style="fill:#fff;"/><rect x="112.575" y="128.774" width="21.009" height="4" style="fill:#fff;"/><rect x="105.584" y="120.708" width="28" height="4" style="fill:#fff;"/></g><g><rect x="67.1107" y="112.867" width="21" height="4" style="fill:#fff;"/><rect x="63.5842" y="136.8" width="28" height="4" style="fill:#fff;"/><rect x="67.1107" y="128.8" width="21.009" height="4" style="fill:#fff;"/><rect x="63.5842" y="120.734" width="28" height="4" style="fill:#fff;"/></g><path d="M153.875,134.716l6.75634,0l1.54263,4.04209c0.136689,0.371013 0.449121,0.546756 0.800607,0.546756c0.117162,0 0.234324,-0.019527 0.351486,-0.058581c0.39054,-0.0976349 0.702972,-0.39054 0.702972,-0.78108c0,-0.117162 -0.019527,-0.214797 -0.078108,-0.331959l-5.31134,-13.376c-0.253851,-0.663918 -0.761553,-0.917769 -1.38642,-0.917769c-0.605337,0 -1.09351,0.253851 -1.34736,0.917769l-5.31134,13.3369c-0.039054,0.117162 -0.058581,0.214797 -0.058581,0.331959c0,0.371013 0.292905,0.702972 0.683445,0.800607c0.136689,0.039054 0.253851,0.058581 0.39054,0.058581c0.331959,0 0.624864,-0.156216 0.761553,-0.546756l1.50358,-4.02256ZM154.461,133.076l2.20655,-5.66283c0.234324,-0.58581 0.429594,-1.21067 0.605337,-1.87459c0.175743,0.663918 0.39054,1.28878 0.605337,1.85506l2.1675,5.68235l-5.58472,0Z" style="fill:#fff;fill-rule:nonzero;"/><path d="M179.978,133.554l8.46739,0l1.93331,5.06575c0.171306,0.464972 0.562861,0.685222 1.00336,0.685222c0.146833,0 0.293667,-0.0244722 0.4405,-0.0734167c0.489444,-0.122361 0.881,-0.489444 0.881,-0.978889c0,-0.146833 -0.0244722,-0.269194 -0.0978889,-0.416028l-6.65644,-16.7635c-0.318139,-0.832055 -0.954417,-1.15019 -1.73753,-1.15019c-0.758639,0 -1.37044,0.318139 -1.68858,1.15019l-6.65644,16.7145c-0.0489444,0.146833 -0.0734167,0.269194 -0.0734167,0.416028c0,0.464972 0.367083,0.881 0.856528,1.00336c0.171306,0.0489444 0.318139,0.0734167 0.489444,0.0734167c0.416028,0 0.783111,-0.195778 0.954417,-0.685222l1.88436,-5.04128ZM180.712,131.498l2.76536,-7.09694c0.293667,-0.734167 0.538389,-1.51728 0.758639,-2.34933c0.22025,0.832055 0.489444,1.61517 0.758639,2.32486l2.71642,7.12142l-6.99905,0Z" style="fill:#fff;fill-rule:nonzero;"/><path d="M210.153,132.725l9.688,0l2.212,5.796c0.196,0.532 0.644,0.784 1.148,0.784c0.168,0 0.336,-0.028 0.504,-0.084c0.56,-0.14 1.008,-0.56 1.008,-1.12c0,-0.168 -0.028,-0.308 -0.112,-0.476l-7.616,-19.18c-0.364,-0.952 -1.092,-1.316 -1.988,-1.316c-0.868,0 -1.568,0.364 -1.932,1.316l-7.616,19.124c-0.056,0.168 -0.084,0.308 -0.084,0.476c0,0.532 0.42,1.008 0.98,1.148c0.196,0.056 0.364,0.084 0.56,0.084c0.476,0 0.896,-0.224 1.092,-0.784l2.156,-5.768ZM210.993,130.373l3.164,-8.12c0.336,-0.84 0.616,-1.736 0.868,-2.688c0.252,0.952 0.56,1.848 0.868,2.66l3.108,8.148l-8.008,0Z" style="fill:#fff;fill-rule:nonzero;"/></g><path d="M298.584,70.9888c0,-8.2847 -6.71608,-15.0008 -15.0008,-15.0008l-209.998,0c-8.2847,0 -15.0008,6.71608 -15.0008,15.0008l0,30.0354c0,8.2847 6.71608,15.0008 15.0008,15.0008l209.998,0c8.2847,0 15.0008,-6.71608 15.0008,-15.0008l0,-30.0354Z" style="fill:#ff6347;stroke-width:4px;stroke:#fff;"/><path d="M93.5914,77.8019l-0.928768,-0.928768l-18.1666,18.1666l0.928768,0.928768l18.1666,-18.1666Z" style="fill:#fff;"/><path d="M116.257,78.5067l-2.09134,-2.09134l-18.1666,18.1666l2.09134,2.09134l18.1666,-18.1666Z" style="fill:#fff;"/><path d="M138.003,79.995l-3.57962,-3.57962l-18.1666,18.1666l3.57962,3.57962l18.1666,-18.1666Z" style="fill:#fff;"/><path d="M165.236,94.5423l10.2099,0l0,-10.2099l-10.2099,0l0,10.2099ZM162.236,97.5423l0,-16.2099l16.2099,0l0,16.2099l-16.2099,0Z" style="fill:#fff;"/><rect x="154.911" y="74.0077" width="17.9494" height="17.9494" style="fill:#fff;stroke-width:2px;stroke:#ff6347;"/><rect x="187.946" y="73.4789" width="23.9095" height="23.9632" style="fill:#fff;fill-opacity:0.4;"/><rect x="211.855" y="73.4789" width="23.9095" height="23.9632" style="fill:#fff;fill-opacity:0.6;"/><rect x="235.765" y="73.4789" width="23.9095" height="23.9632" style="fill:#fff;fill-opacity:0.8;"/><rect x="259.674" y="73.4789" width="23.9095" height="23.9632" style="fill:#fff;"/><path d="M147.755,72.381l0,29.9631" style="fill:none;stroke-width:1px;stroke-linejoin:miter;stroke:#fff;"/></g><g id="Layer2"></g></svg>