<?xml version="1.0" standalone="no"?><!DOCTYPE svg PUBLIC "-//W3C//DTD SVG 1.1//EN" "http://www.w3.org/Graphics/SVG/1.1/DTD/svg11.dtd"><svg width="100%" height="100%" viewBox="0 0 300 200" version="1.1" xmlns="http://www.w3.org/2000/svg" xmlns:xlink="http://www.w3.org/1999/xlink" xml:space="preserve" style="fill-rule:evenodd;clip-rule:evenodd;stroke-linecap:round;stroke-linejoin:round;stroke-miterlimit:1.41421;"><g id="Layer1"><g><path d="M172.707,5.74079c0,-2.02107 -1.6384,-3.65946 -3.65947,-3.65946l-163.388,0c-2.02107,0 -3.65947,1.6384 -3.65947,3.65946l8.15348e-13,119.99l170.707,5.68434e-14l-4.26326e-13,-119.99Z" style="fill:none;stroke-width:2px;stroke:#ffb3a5;"/><path d="M2,9.37075l170.707,0" style="fill:none;stroke-width:2px;stroke:#ffb3a5;"/></g><path d="M3.48015,18.773l167.828,0" style="fill:none;stroke-width:0.75px;stroke:#ffb3a5;"/><rect x="2" y="18.773" width="38.8683" height="106.958" style="fill:none;stroke-width:0.75px;stroke:#ffb3a5;"/><path d="M15.2383,18.8646l0,106.209" style="fill:none;stroke-width:0.75px;stroke:#ffb3a5;"/><path d="M28.0634,19.2306l0,106.209" style="fill:none;stroke-width:0.75px;stroke:#ffb3a5;"/><path d="M2.00575,67.5575l38.8683,0" style="fill:none;stroke-width:0.75px;stroke:#ffb3a5;"/><path d="M2.2226,30.9708l38.5302,0" style="fill:none;stroke-width:0.75px;stroke:#ffb3a5;"/><path d="M2.2226,30.9708l38.5302,0" style="fill:none;stroke-width:0.75px;stroke:#ffb3a5;"/><path d="M2.22835,91.9971l38.5302,0" style="fill:none;stroke-width:0.75px;stroke:#ffb3a5;"/><path d="M2.18055,79.7703l38.5302,0" style="fill:none;stroke-width:0.75px;stroke:#ffb3a5;"/><path d="M2.1748,55.425l38.5302,0" style="fill:none;stroke-width:0.75px;stroke:#ffb3a5;"/><path d="M2.1748,43.2145l38.5302,0" style="fill:none;stroke-width:0.75px;stroke:#ffb3a5;"/><path d="M2.1748,43.2145l38.5302,0" style="fill:none;stroke-width:0.75px;stroke:#ffb3a5;"/><path d="M2.1748,43.2145l38.5302,0" style="fill:none;stroke-width:0.75px;stroke:#ffb3a5;"/><path d="M2.18055,104.241l38.5302,0" style="fill:none;stroke-width:0.75px;stroke:#ffb3a5;"/><path d="M2.18055,115.139l38.5302,0" style="fill:none;stroke-width:0.75px;stroke:#ffb3a5;"/><rect x="53.2551" y="31.5618" width="105.353" height="80.6319" style="fill:none;stroke-width:0.75px;stroke:#ffb3a5;"/><rect x="63.4037" y="18.8646" width="33.4836" height="38.1781" style="fill:#fff;stroke-width:0.75px;stroke:#ffb3a5;"/><rect x="136.899" y="40.8806" width="31.0645" height="46.0508" style="fill:#fff;stroke-width:0.75px;stroke:#ffb3a5;"/><path d="M141.89,59.4621l21.0831,0" style="fill:none;stroke-width:0.75px;stroke:#ffb3a5;"/><path d="M40.8561,18.773l0,-9.51114" style="fill:none;stroke-width:0.75px;stroke:#ffb3a5;"/><path d="M52.4353,18.2675l0,-9.00563" style="fill:none;stroke-width:0.75px;stroke:#ffb3a5;"/><path d="M63.4037,18.2675l0,-9.00563" style="fill:none;stroke-width:0.75px;stroke:#ffb3a5;"/><path d="M141.588,18.2675l0,-9.00563" style="fill:none;stroke-width:0.75px;stroke:#ffb3a5;"/><path d="M73.9199,18.2675l0,-9.00563" style="fill:none;stroke-width:0.75px;stroke:#ffb3a5;"/><path d="M152.105,18.2675l0,-9.00563" style="fill:none;stroke-width:0.75px;stroke:#ffb3a5;"/><path d="M83.7897,18.2675l0,-9.00563" style="fill:none;stroke-width:0.75px;stroke:#ffb3a5;"/><path d="M161.975,18.2675l0,-9.00563" style="fill:none;stroke-width:0.75px;stroke:#ffb3a5;"/><path d="M63.4037,37.3722l33.4836,0" style="fill:none;stroke-width:0.75px;stroke:#ffb3a5;"/><path d="M96.8872,27.7039l-33.4836,0" style="fill:none;stroke-width:0.75px;stroke:#ffb3a5;"/><path d="M63.4037,47.3478l33.4836,0" style="fill:none;stroke-width:0.75px;stroke:#ffb3a5;"/><g><path d="M298.808,79.0101c0,-2.02107 -1.6384,-3.65946 -3.65947,-3.65946l-163.388,0c-2.02107,0 -3.65947,1.6384 -3.65947,3.65946l8.2423e-13,119.99l170.707,5.68434e-14l-3.97904e-13,-119.99Z" style="fill:#fff;stroke-width:2px;stroke:#ff6347;"/><path d="M128.101,82.6401l170.707,0" style="fill:#fff;stroke-width:2px;stroke:#ff6347;"/></g><path d="M129.497,92.0424l167.828,0" style="fill:none;stroke-width:0.75px;stroke:#ff6347;"/><rect x="161.625" y="104.831" width="105.353" height="80.6319" style="fill:none;stroke-width:0.75px;stroke:#ff6347;"/><path d="M141.89,65.9919l21.0831,0" style="fill:none;stroke-width:0.75px;stroke:#ffb3a5;"/><path d="M141.89,72.0778l21.0831,0" style="fill:none;stroke-width:0.75px;stroke:#ffb3a5;"/></g></svg>